# xmcd CD database file
#
# Track frame offsets:
#	150
#	16144
#	42362
#	54414
#	74081
#	94015
#	113941
#	135478
#	153425
#	173062
#	197045
#	211667
#
# Disc length: 3102 seconds
#
# Revision: 2
# Processed by: cddbd v1.5.2PL0 Copyright (c) Steve Scherf et al.
# Submitted via: CDex 1.51
#
DISCID=9f0c1c0c
DTITLE=Brian Eno - Another Day On Earth
DYEAR=2005
DGENRE=Rock
TTITLE0=This
TTITLE1=And Then So Clear
TTITLE2=A Long Way Down
TTITLE3=Going Unconscious
TTITLE4=Caought Between
TTITLE5=Passing Over
TTITLE6=How Many Worlds
TTITLE7=Bottomliners
TTITLE8=Just Another Day
TTITLE9=Under
TTITLE10=Bone Bomb
TTITLE11=The Demon Of The Mines
EXTD=YEAR: 2005
EXTT0=
EXTT1=
EXTT2=
EXTT3=
EXTT4=
EXTT5=
EXTT6=
EXTT7=
EXTT8=
EXTT9=
EXTT10=
EXTT11=
PLAYORDER=
